<mxfile host="65bd71144e">
    <diagram name="Page-1" id="58cdce13-f638-feb5-8d6f-7d28b1aa9fa0">
        <mxGraphModel dx="1039" dy="684" grid="1" gridSize="10" guides="1" tooltips="1" connect="1" arrows="1" fold="1" page="1" pageScale="1" pageWidth="1100" pageHeight="850" background="none" math="0" shadow="0">
            <root>
                <mxCell id="0"/>
                <mxCell id="1" parent="0"/>
                <mxCell id="382b91b5511bd0f7-1" value="" style="ellipse;html=1;shape=startState;rounded=1;shadow=0;comic=0;labelBackgroundColor=none;fontFamily=Verdana;fontSize=12;align=center;direction=south;" parent="1" vertex="1">
                    <mxGeometry x="525" y="90" width="30" height="30" as="geometry"/>
                </mxCell>
                <mxCell id="382b91b5511bd0f7-6" value="OFF" style="rounded=1;whiteSpace=wrap;html=1;arcSize=24;fillColor=#f5f5f5;strokeColor=#666666;shadow=0;comic=0;labelBackgroundColor=none;fontFamily=Verdana;fontSize=12;align=center;fontColor=#333333;" parent="1" vertex="1">
                    <mxGeometry x="480" y="160" width="120" height="60" as="geometry"/>
                </mxCell>
                <mxCell id="2a3bc250acf0617d-9" style="edgeStyle=orthogonalEdgeStyle;html=1;labelBackgroundColor=none;endArrow=open;endSize=8;fontFamily=Verdana;fontSize=12;align=left;entryX=0.5;entryY=0;entryDx=0;entryDy=0;" parent="1" source="382b91b5511bd0f7-1" target="382b91b5511bd0f7-6" edge="1">
                    <mxGeometry relative="1" as="geometry"/>
                </mxCell>
                <mxCell id="l36RRdb2u-j4kdZa6kZr-1" value="LOW_POWER" style="rounded=1;whiteSpace=wrap;html=1;arcSize=24;fillColor=#99D9F0;strokeColor=#6c8ebf;shadow=0;comic=0;labelBackgroundColor=none;fontFamily=Verdana;fontSize=12;align=center;" parent="1" vertex="1">
                    <mxGeometry x="180" y="360" width="120" height="60" as="geometry"/>
                </mxCell>
                <mxCell id="l36RRdb2u-j4kdZa6kZr-2" value="MEDIUM_POWER" style="rounded=1;whiteSpace=wrap;html=1;arcSize=24;fillColor=#AEC8FC;strokeColor=#6c8ebf;shadow=0;comic=0;labelBackgroundColor=none;fontFamily=Verdana;fontSize=12;align=center;" parent="1" vertex="1">
                    <mxGeometry x="380" y="360" width="120" height="60" as="geometry"/>
                </mxCell>
                <mxCell id="l36RRdb2u-j4kdZa6kZr-3" value="HIGH_POWER" style="rounded=1;whiteSpace=wrap;html=1;arcSize=24;fillColor=#86A9FC;strokeColor=#6c8ebf;shadow=0;comic=0;labelBackgroundColor=none;fontFamily=Verdana;fontSize=12;align=center;" parent="1" vertex="1">
                    <mxGeometry x="580" y="360" width="120" height="60" as="geometry"/>
                </mxCell>
                <mxCell id="l36RRdb2u-j4kdZa6kZr-4" value="HIGHEST_POWER" style="rounded=1;whiteSpace=wrap;html=1;arcSize=24;fillColor=#8195FC;strokeColor=#6c8ebf;shadow=0;comic=0;labelBackgroundColor=none;fontFamily=Verdana;fontSize=12;align=center;" parent="1" vertex="1">
                    <mxGeometry x="780" y="360" width="120" height="60" as="geometry"/>
                </mxCell>
            </root>
        </mxGraphModel>
    </diagram>
    <diagram id="kXMrU8vkvgf7M4nNWQha" name="Use Cases">
        <mxGraphModel dx="643" dy="639" grid="1" gridSize="10" guides="1" tooltips="1" connect="1" arrows="1" fold="1" page="1" pageScale="1" pageWidth="827" pageHeight="1169" math="0" shadow="0">
            <root>
                <mxCell id="0"/>
                <mxCell id="1" parent="0"/>
            </root>
        </mxGraphModel>
    </diagram>
</mxfile>